<?xml version="1.0" encoding="UTF-8" standalone="no"?>
<!-- Created with Inkscape (http://www.inkscape.org/) -->

<svg
   xmlns:dc="http://purl.org/dc/elements/1.1/"
   xmlns:cc="http://creativecommons.org/ns#"
   xmlns:rdf="http://www.w3.org/1999/02/22-rdf-syntax-ns#"
   xmlns:svg="http://www.w3.org/2000/svg"
   xmlns="http://www.w3.org/2000/svg"
   xmlns:sodipodi="http://sodipodi.sourceforge.net/DTD/sodipodi-0.dtd"
   xmlns:inkscape="http://www.inkscape.org/namespaces/inkscape"
   width="45"
   height="16"
   viewBox="0 0 45 16"
   id="svg4161"
   version="1.1"
   inkscape:version="0.91 r13725"
   inkscape:export-filename="/home/herman/repos/qedb/qedb/web/favicon.png"
   inkscape:export-xdpi="180"
   inkscape:export-ydpi="180"
   sodipodi:docname="qedb-logo-single-path.svg">
  <defs
     id="defs4163" />
  <sodipodi:namedview
     id="base"
     pagecolor="#ffffff"
     bordercolor="#666666"
     borderopacity="1.0"
     inkscape:pageopacity="0.0"
     inkscape:pageshadow="2"
     inkscape:zoom="15.839192"
     inkscape:cx="26.827671"
     inkscape:cy="3.9843643"
     inkscape:document-units="px"
     inkscape:current-layer="layer1"
     showgrid="true"
     units="px"
     inkscape:snap-bbox="true"
     inkscape:object-nodes="true"
     inkscape:snap-intersection-paths="true"
     inkscape:object-paths="true"
     inkscape:snap-midpoints="false"
     inkscape:snap-smooth-nodes="true"
     showguides="false"
     inkscape:snap-grids="true"
     inkscape:window-width="1920"
     inkscape:window-height="1016"
     inkscape:window-x="0"
     inkscape:window-y="27"
     inkscape:window-maximized="1">
    <inkscape:grid
       type="xygrid"
       id="grid4709" />
  </sodipodi:namedview>
  <metadata
     id="metadata4166">
    <rdf:RDF>
      <cc:Work
         rdf:about="">
        <dc:format>image/svg+xml</dc:format>
        <dc:type
           rdf:resource="http://purl.org/dc/dcmitype/StillImage" />
        <dc:title></dc:title>
      </cc:Work>
    </rdf:RDF>
  </metadata>
  <g
     inkscape:label="Layer 1"
     inkscape:groupmode="layer"
     id="layer1"
     transform="translate(0,-1036.3622)">
    <path
       style="color:#000000;font-style:normal;font-variant:normal;font-weight:normal;font-stretch:normal;font-size:medium;line-height:normal;font-family:sans-serif;text-indent:0;text-align:start;text-decoration:none;text-decoration-line:none;text-decoration-style:solid;text-decoration-color:#000000;letter-spacing:normal;word-spacing:normal;text-transform:none;direction:ltr;block-progression:tb;writing-mode:lr-tb;baseline-shift:baseline;text-anchor:start;white-space:normal;clip-rule:nonzero;display:inline;overflow:visible;visibility:visible;opacity:1;isolation:auto;mix-blend-mode:normal;color-interpolation:sRGB;color-interpolation-filters:linearRGB;solid-color:#000000;solid-opacity:1;fill:#111111;fill-opacity:1;fill-rule:nonzero;stroke:none;stroke-width:2;stroke-linecap:butt;stroke-linejoin:round;stroke-miterlimit:4;stroke-dasharray:none;stroke-dashoffset:0;stroke-opacity:1;color-rendering:auto;image-rendering:auto;shape-rendering:auto;text-rendering:auto;enable-background:accumulate"
       d="m 31,0 0,15 -2,0 0,-4 -2,0 0,3 -7,0 0,-5 4,0 0,-2 -4,0 0,-5 7,0 0,3 2,0 0,-5 -11,0 0,14 -2,0 C 15.049875,14 14.424632,13.798108 13.855469,13.429688 15.181733,12.000928 16,10.095474 16,8 16,3.5936 12.406433,0 8,0 3.5935666,0 0,3.5936 0,8 c 0,4.4065 3.5935666,8 8,8 1.5773148,0 3.045646,-0.468355 4.287109,-1.261719 C 13.240914,15.466963 14.444388,16 16,16 l 29,0 z M 8,2 c 3.325553,0 6,2.6745 6,6 0,1.5901862 -0.615414,3.026447 -1.617188,4.097656 C 11.89021,11.560704 11.359546,10.945468 10.707031,10.292969 8.9320457,8.5179685 6.6618154,8.2131625 4.8359375,8.3515625 3.4566297,8.4561129 2.5461726,8.7530759 2.078125,8.921875 2.0318914,8.6203939 2,8.3148739 2,8 2,4.6745 4.6744469,2 8,2 Z m 25,4 7,8 -7,0 z M 6.0253906,10.382812 c 1.1449577,0.06487 2.3488175,0.405432 3.2675782,1.324219 0.5300294,0.529988 1.0007522,1.078214 1.4863282,1.611328 C 9.9489092,13.751231 9.0052683,14 8,14 5.6990352,14 3.7124282,12.718607 2.7050781,10.828125 3.1811286,10.672194 4.463257,10.294305 6.0253906,10.382812 Z"
       transform="translate(0,1036.3622)"
       id="path4723"
       inkscape:connector-curvature="0"
       sodipodi:nodetypes="ccccccccccccccccccscssssccccssccscssccccsccscs" />
  </g>
</svg>
